<svg width="14" height="14" viewBox="0 0 14 14" fill="none" xmlns="http://www.w3.org/2000/svg">
<path fill-rule="evenodd" clip-rule="evenodd" d="M13.7056 1.77674C14.0961 1.38622 14.0961 0.753054 13.7056 0.362529L13.6372 0.294152C13.2467 -0.096372 12.6135 -0.0963723 12.223 0.294152L6.99972 5.51741L1.77646 0.294152C1.38594 -0.0963726 0.752771 -0.0963723 0.362247 0.294152L0.29387 0.362529C-0.0966543 0.753053 -0.0966545 1.38622 0.29387 1.77674L5.51713 7L0.293869 12.2233C-0.0966549 12.6138 -0.0966546 13.2469 0.29387 13.6375L0.362247 13.7058C0.752771 14.0964 1.38594 14.0964 1.77646 13.7058L6.99972 8.48259L12.223 13.7058C12.6135 14.0964 13.2467 14.0964 13.6372 13.7058L13.7056 13.6375C14.0961 13.2469 14.0961 12.6138 13.7056 12.2233L8.48231 7L13.7056 1.77674Z" fill="#16141A"/>
</svg>
