<svg width="24" height="24" viewBox="0 0 24 24" fill="none" xmlns="http://www.w3.org/2000/svg">
<circle opacity="0.32" r="8" transform="matrix(0 1 1 0 12 12)" fill="#5C5C6E"/>
<path fill-rule="evenodd" clip-rule="evenodd" d="M9.01528 15.8319C8.79213 16.0551 8.43032 16.0551 8.20716 15.8319L8.16809 15.7928C7.94493 15.5697 7.94493 15.2079 8.16809 14.9847L11.1528 12L8.16809 9.01528C7.94493 8.79213 7.94493 8.43032 8.16809 8.20716L8.20716 8.16809C8.43032 7.94493 8.79213 7.94493 9.01528 8.16809L12 11.1528L14.9847 8.16809C15.2079 7.94493 15.5697 7.94493 15.7928 8.16809L15.8319 8.20716C16.0551 8.43032 16.0551 8.79213 15.8319 9.01528L12.8472 12L15.8319 14.9847C16.0551 15.2079 16.0551 15.5697 15.8319 15.7928L15.7928 15.8319C15.5697 16.0551 15.2079 16.0551 14.9847 15.8319L12 12.8472L9.01528 15.8319Z" fill="white"/>
</svg>
