<svg width="48" height="48" viewBox="0 0 48 48" fill="none" xmlns="http://www.w3.org/2000/svg">
<circle opacity="0.24" cx="24" cy="24" r="24" fill="black"/>
<path fill-rule="evenodd" clip-rule="evenodd" d="M33.796 13.2552C33.4918 12.9868 33.0572 12.9242 32.6894 13.0956L28.7855 14.9143C27.8389 15.355 26.9936 15.987 26.3033 16.7697L22.252 21.3644C19.8004 20.779 17.1138 21.5311 15.33 23.5542C14.6552 24.3194 14.1772 25.1911 13.8918 26.1056C13.817 26.3448 13.8697 26.6057 14.0312 26.7969C14.1928 26.9885 14.4409 27.0841 14.6891 27.0512C16.6015 26.7978 18.6081 27.3375 20.1687 28.7135C21.7293 30.0895 22.5167 32.0127 22.5044 33.9425C22.503 34.1926 22.6292 34.4262 22.8392 34.5623C23.0493 34.6984 23.3149 34.7181 23.5428 34.6141C24.4144 34.2161 25.2188 33.6332 25.8926 32.8674C27.6765 30.8444 28.0857 28.0848 27.1976 25.7251L31.2474 21.1313C31.9383 20.3477 32.46 19.4294 32.7784 18.4339L34.0922 14.3327C34.217 13.9465 34.1002 13.5237 33.796 13.2552ZM30.3536 19.913C29.6896 20.6665 28.5406 20.7385 27.7876 20.0746C27.0346 19.4106 26.9626 18.2615 27.6261 17.5085C28.2905 16.7551 29.4391 16.683 30.1921 17.347C30.946 18.011 31.0176 19.16 30.3536 19.913ZM18.4865 28.486C18.0966 28.1422 17.5014 28.1799 17.1571 28.5693L14.6655 31.3948C14.3217 31.7852 14.359 32.38 14.7489 32.7242C14.9278 32.882 15.1501 32.9597 15.3714 32.9597C15.6323 32.9597 15.8923 32.8519 16.0783 32.6404L18.5699 29.8149C18.9141 29.4245 18.8769 28.8293 18.4865 28.486ZM16.7851 33.2635L19.2768 30.4375C19.6205 30.0481 20.2158 30.0099 20.6061 30.3542C20.9961 30.6979 21.0333 31.2932 20.6895 31.6835L18.1979 34.5095C18.0119 34.7205 17.7519 34.8283 17.491 34.8283C17.2697 34.8283 17.0474 34.7506 16.8685 34.5929C16.4786 34.2486 16.4414 33.6539 16.7851 33.2635Z" fill="white"/>
</svg>
