<svg width="16" height="16" viewBox="0 0 16 16" fill="none" xmlns="http://www.w3.org/2000/svg">
<path fill-rule="evenodd" clip-rule="evenodd" d="M10.2417 12.1325L13.7175 15.6084C14.2397 16.1305 15.0863 16.1305 15.6084 15.6084C16.1305 15.0862 16.1305 14.2396 15.6084 13.7175L12.1324 10.2415C12.122 10.231 12.1105 10.2224 12.0991 10.2138C12.0902 10.2071 12.0814 10.2004 12.0731 10.193C12.757 9.15549 13.1562 7.91364 13.1562 6.57803C13.1562 2.94506 10.211 0 6.57809 0C2.94512 0 0 2.94512 0 6.57809C0 10.2111 2.94512 13.1562 6.57816 13.1562C7.91371 13.1562 9.15561 12.757 10.1931 12.0731C10.2005 12.0814 10.2072 12.0902 10.2138 12.099C10.2225 12.1105 10.2312 12.122 10.2417 12.1325ZM6.57814 2.28033C8.95169 2.28033 10.8758 4.20446 10.8758 6.57807C10.8758 8.95156 8.95169 10.8758 6.57814 10.8758C4.20459 10.8758 2.2804 8.95156 2.2804 6.57807C2.2804 4.20452 4.20452 2.28033 6.57814 2.28033Z" fill="#736E7D"/>
</svg>
